{"title":"Hot-Indian actress  Namitha Hard Fucking 2013 -MTR Dev","uid":8413766,"size":34329041,"categoryP":"games","categoryS":"other","magnet":"?xt=urn:btih:de9782174d7c73ad136064b14989755ac9be9b88&amp;dn=Hot-Indian+actress++Namitha+Hard+Fucking+2013+-MTR+Dev&amp;tr=udp%3A%2F%2Ftracker.openbittorrent.com%3A80&amp;tr=udp%3A%2F%2Fopen.demonii.com%3A1337&amp;tr=udp%3A%2F%2Ftracker.coppersurfer.tk%3A6969&amp;tr=udp%3A%2F%2Fexodus.desync.com%3A6969","seeders":1,"leechers":1,"uploader":"Devdeep","files":10,"time":1366983075,"description":"Hot-Indian actress  Namitha Hard Fucking 2013 -MTR\nComplete name                            : Hot-Indian actress  Namitha Hard Fucking 2013 -MTR DevHot-Indian actress  Namitha Hard Fucking -MTR Dev.flv\nFormat                                   : Flash Video\nFile size                                : 29.6 MiB\nDuration                                 : 8mn 40s\nOverall bit rate                         : 478 Kbps\nTagged date                              : UTC 2009-12-23 05:49:55\nTagging application                      : inlet media FLVTool2 v1.0.6 - http://www.inlet-media.de/flvtool2\n\nVideo\nFormat                                   : VP6\nCodec ID                                 : 4\nDuration                                 : 8mn 39s\nBit rate                                 : 406 Kbps\nWidth                                    : 528 pixels\nHeight                                   : 400 pixels\nDisplay aspect ratio                     : 4:3\nFrame rate mode                          : Constant\nFrame rate                               : 25.000 fps\nBit depth                                : 8 bits\nBits/(Pixel*Frame)                       : 0.077\nStream size                              : 25.3 MiB (85%)\n\nAudio\nFormat                                   : MPEG Audio\nFormat version                           : Version 2\nFormat profile                           : Layer 3\nMode                                     : Joint stereo\nMode extension                           : MS Stereo\nCodec ID                                 : 2\nCodec ID/Hint                            : MP3\nDuration                                 : 8mn 40s\nBit rate mode                            : Constant\nBit rate                                 : 64.0 Kbps\nChannel(s)                               : 2 channels\nSampling rate                            : 22.05 KHz\nCompression mode                         : Lossy\nStream size                              : 4.20 MiB (14%)\n\n\nScreens... &lt;a href=&quot;\nhttp://i.imgur.com/gVu2VNN.png&quot; rel=&quot;nofollow&quot; target=&quot;_NEW&quot;&gt;\nhttp://i.imgur.com/gVu2VNN.png&lt;/a&gt; &lt;a href=&quot;\nhttp://i.imgur.com/nhjJ9hI.png&quot; rel=&quot;nofollow&quot; target=&quot;_NEW&quot;&gt;\nhttp://i.imgur.com/nhjJ9hI.png&lt;/a&gt; &lt;a href=&quot;\nhttp://i.imgur.com/qerY4xl.png&quot; rel=&quot;nofollow&quot; target=&quot;_NEW&quot;&gt;\nhttp://i.imgur.com/qerY4xl.png&lt;/a&gt; &lt;a href=&quot;\nhttp://i.imgur.com/jOLV4qq.png&quot; rel=&quot;nofollow&quot; target=&quot;_NEW&quot;&gt;\nhttp://i.imgur.com/jOLV4qq.png&lt;/a&gt; &lt;a href=&quot;\nhttp://i.imgur.com/K54ZstM.png&quot; rel=&quot;nofollow&quot; target=&quot;_NEW&quot;&gt;\nhttp://i.imgur.com/K54ZstM.png&lt;/a&gt; &lt;a href=&quot;\nhttp://i.imgur.com/KnnLeuK.png&quot; rel=&quot;nofollow&quot; target=&quot;_NEW&quot;&gt;\nhttp://i.imgur.com/KnnLeuK.png&lt;/a&gt; &lt;a href=&quot;\nhttp://i.imgur.com/9jAPgNu.png&quot; rel=&quot;nofollow&quot; target=&quot;_NEW&quot;&gt;\nhttp://i.imgur.com/9jAPgNu.png&lt;/a&gt; &lt;a href=&quot;\nhttp://i.imgur.com/EuF1ePC.png&quot; rel=&quot;nofollow&quot; target=&quot;_NEW&quot;&gt;\nhttp://i.imgur.com/EuF1ePC.png&lt;/a&gt;\n","torrent":{"xt":"urn:btih:de9782174d7c73ad136064b14989755ac9be9b88","amp;dn":"Hot-Indian+actress++Namitha+Hard+Fucking+2013+-MTR+Dev","amp;tr":["udp%3A%2F%2Ftracker.openbittorrent.com%3A80","udp%3A%2F%2Fopen.demonii.com%3A1337","udp%3A%2F%2Ftracker.coppersurfer.tk%3A6969","udp%3A%2F%2Fexodus.desync.com%3A6969"],"infoHash":"de9782174d7c73ad136064b14989755ac9be9b88","infoHashBuffer":{"type":"Buffer","data":[222,151,130,23,77,124,115,173,19,96,100,177,73,137,117,90,201,190,155,136]},"announce":[],"urlList":[]}}